<?xml version="1.0" encoding="UTF-8" standalone="no"?>
<!-- Created with Inkscape (http://www.inkscape.org/) -->

<svg
   width="210mm"
   height="297mm"
   viewBox="0 0 210 297"
   version="1.1"
   id="svg5"
   xml:space="preserve"
   inkscape:export-filename="..\fps_2.png"
   inkscape:export-xdpi="283.36383"
   inkscape:export-ydpi="283.36383"
   inkscape:version="1.2.2 (732a01da63, 2022-12-09)"
   sodipodi:docname="fps_1.svg"
   xmlns:inkscape="http://www.inkscape.org/namespaces/inkscape"
   xmlns:sodipodi="http://sodipodi.sourceforge.net/DTD/sodipodi-0.dtd"
   xmlns="http://www.w3.org/2000/svg"
   xmlns:svg="http://www.w3.org/2000/svg"><sodipodi:namedview
     id="namedview7"
     pagecolor="#494949"
     bordercolor="#000000"
     borderopacity="0.25"
     inkscape:showpageshadow="2"
     inkscape:pageopacity="0"
     inkscape:pagecheckerboard="false"
     inkscape:deskcolor="#383838"
     inkscape:document-units="mm"
     showgrid="false"
     inkscape:zoom="45.254834"
     inkscape:cx="411.35937"
     inkscape:cy="619.46973"
     inkscape:window-width="3840"
     inkscape:window-height="1529"
     inkscape:window-x="-8"
     inkscape:window-y="1072"
     inkscape:window-maximized="1"
     inkscape:current-layer="layer1" /><defs
     id="defs2" /><g
     inkscape:label="Ebene 1"
     inkscape:groupmode="layer"
     id="layer1"><path
       id="path1697-1-6-3-3"
       style="fill:none;stroke:#808080;stroke-width:0.13;stroke-opacity:0.3028169;stroke-dasharray:none"
       d="m 109.04361,163.52911 c 0,0.45765 0,0.45765 0,0.45765 v 0 m 0,-0.82051 v -0.34064 -0.11701 0 m 0.1813,0.63895 c 0.45765,0 0.45765,0 0.45765,0 v 0 m -1.27796,0 c 0.45765,0 0.45765,0 0.45765,0 v 0 m 0.58417,0 a 0.40280873,0.40280873 0 0 1 -0.40281,0.40281 0.40280873,0.40280873 0 0 1 -0.40281,-0.40281 0.40280873,0.40280873 0 0 1 0.40281,-0.40281 0.40280873,0.40280873 0 0 1 0.40281,0.40281 z" /></g></svg>
