<?xml version="1.0" encoding="UTF-8" standalone="no"?>
<!DOCTYPE svg PUBLIC "-//W3C//DTD SVG 1.1//EN" "http://www.w3.org/Graphics/SVG/1.1/DTD/svg11.dtd">
<svg width="100%" height="100%" viewBox="0 0 385 386" version="1.1" xmlns="http://www.w3.org/2000/svg" xmlns:xlink="http://www.w3.org/1999/xlink" xml:space="preserve" xmlns:serif="http://www.serif.com/" style="fill-rule:evenodd;clip-rule:evenodd;stroke-linejoin:round;stroke-miterlimit:2;">
    <rect id="Artboard1" x="0" y="0" width="384.987" height="385.003" style="fill:none;"/>
    <g id="Artboard11" serif:id="Artboard1">
        <g id="Ebene-1" serif:id="Ebene 1">
            <path id="path2418" d="M59.779,18.639L175.182,89.006L192.293,4.643L208.755,89.107L325.208,18.344L215.473,119.958L208.755,89.107L192.451,99.013L175.182,89.006L169.008,119.879L59.779,18.639Z" style="fill:#fff;fill-rule:nonzero;"/>
            <path id="path2420" d="M169.031,131.832L60.347,36.864L178.012,181.399L169.031,131.832Z" style="fill:#fff;fill-rule:nonzero;"/>
            <path id="path2422" d="M206.39,181.383L215.498,131.485L325.066,36.005L206.39,181.383Z" style="fill:#fff;fill-rule:nonzero;"/>
            <path id="path2424" d="M173.462,236.943L60.779,55.36L166.696,186.311L173.462,236.943Z" style="fill:#fff;fill-rule:nonzero;"/>
            <path id="path2426" d="M211.093,237.044L324.9,53.954L217.748,186.235L211.093,237.044Z" style="fill:#fff;fill-rule:nonzero;"/>
            <path id="path2428" d="M173.462,236.943L192.299,267.423L211.093,237.044L192.253,380.36L173.462,236.943Z" style="fill:#fff;fill-rule:nonzero;"/>
            <path id="path2430" d="M192.201,260.684L178.012,181.399L192.194,193.013L206.39,181.383L192.241,260.696L192.201,260.684Z" style="fill:#fff;fill-rule:nonzero;"/>
        </g>
    </g>
</svg>
