{
  "accessors": [
    {
      "bufferView": 2,
      "componentType": 5126,
      "count": 5179,
      "max": [
        1.3543188571929932,
        1.0,
        6.1952667236328125
      ],
      "min": [
        -1.3543188571929932,
        -1.0,
        0.004555940628051758
      ],
      "type": "VEC3"
    },
    {
      "bufferView": 2,
      "byteOffset": 62148,
      "componentType": 5126,
      "count": 5179,
      "max": [
        1.0,
        1.0,
        1.0
      ],
      "min": [
        -1.0,
        -1.0,
        -1.0
      ],
      "type": "VEC3"
    },
    {
      "bufferView": 3,
      "componentType": 5126,
      "count": 5179,
      "max": [
        1.0,
        1.0,
        1.0,
        1.0
      ],
      "min": [
        -1.0,
        -1.0,
        -1.0,
        1.0
      ],
      "type": "VEC4"
    },
    {
      "bufferView": 1,
      "componentType": 5126,
      "count": 5179,
      "max": [
        0.998363196849823,
        1.0001800060272217
      ],
      "min": [
        0.000957190990447998,
        0.0009570121765136719
      ],
      "type": "VEC2"
    },
    {
      "bufferView": 1,
      "byteOffset": 41432,
      "componentType": 5126,
      "count": 5179,
      "max": [
        0.998363196849823,
        1.0001800060272217
      ],
      "min": [
        0.000957190990447998,
        0.0009570121765136719
      ],
      "type": "VEC2"
    },
    {
      "bufferView": 1,
      "byteOffset": 82864,
      "componentType": 5126,
      "count": 5179,
      "max": [
        0.998363196849823,
        1.0001800060272217
      ],
      "min": [
        0.000957190990447998,
        0.0009570121765136719
      ],
      "type": "VEC2"
    },
    {
      "bufferView": 1,
      "byteOffset": 124296,
      "componentType": 5126,
      "count": 5179,
      "max": [
        0.998363196849823,
        1.0001800060272217
      ],
      "min": [
        0.000957190990447998,
        0.0009570121765136719
      ],
      "type": "VEC2"
    },
    {
      "bufferView": 0,
      "componentType": 5125,
      "count": 12438,
      "type": "SCALAR"
    },
    {
      "bufferView": 2,
      "byteOffset": 124296,
      "componentType": 5126,
      "count": 66,
      "max": [
        -5.535131454467773,
        -0.17782056331634521,
        1.3242416381835938
      ],
      "min": [
        -5.722283363342285,
        -0.36497247219085693,
        -1.3242394924163818
      ],
      "type": "VEC3"
    },
    {
      "bufferView": 2,
      "byteOffset": 125088,
      "componentType": 5126,
      "count": 66,
      "max": [
        0.7462030649185181,
        0.7462031245231628,
        0.66572105884552
      ],
      "min": [
        -0.7462032437324524,
        -0.746202826499939,
        -0.6657212972640991
      ],
      "type": "VEC3"
    },
    {
      "bufferView": 1,
      "byteOffset": 165728,
      "componentType": 5126,
      "count": 66,
      "max": [
        0.08014474809169769,
        0.5577765703201294
      ],
      "min": [
        0.04356725513935089,
        0.5215648412704468
      ],
      "type": "VEC2"
    },
    {
      "bufferView": 0,
      "byteOffset": 49752,
      "componentType": 5125,
      "count": 180,
      "type": "SCALAR"
    }
  ],
  "asset": {
    "extras": {
      "author": "Toni García Vilche (https://sketchfab.com/zul_gv)",
      "license": "CC-BY-4.0 (http://creativecommons.org/licenses/by/4.0/)",
      "source": "https://sketchfab.com/3d-models/rusty-japanese-arcade-2938ae13a77c46e8afabb41eba18e699",
      "title": "Rusty Japanese Arcade"
    },
    "generator": "Sketchfab-14.87.0",
    "version": "2.0"
  },
  "bufferViews": [
    {
      "buffer": 0,
      "byteLength": 50472,
      "name": "floatBufferViews",
      "target": 34963
    },
    {
      "buffer": 0,
      "byteLength": 166256,
      "byteOffset": 50472,
      "byteStride": 8,
      "name": "floatBufferViews",
      "target": 34962
    },
    {
      "buffer": 0,
      "byteLength": 125880,
      "byteOffset": 216728,
      "byteStride": 12,
      "name": "floatBufferViews",
      "target": 34962
    },
    {
      "buffer": 0,
      "byteLength": 82864,
      "byteOffset": 342608,
      "byteStride": 16,
      "name": "floatBufferViews",
      "target": 34962
    }
  ],
  "buffers": [
    {
      "byteLength": 425472,
      "uri": "scene.bin"
    }
  ],
  "extensionsUsed": [
    "KHR_materials_emissive_strength",
    "KHR_materials_specular"
  ],
  "images": [
    {
      "uri": "textures/Arcade_baseColor.png"
    },
    {
      "uri": "textures/Arcade_metallicRoughness.png"
    },
    {
      "uri": "textures/Arcade_emissive.png"
    },
    {
      "uri": "textures/Arcade_normal.png"
    }
  ],
  "materials": [
    {
      "doubleSided": true,
      "emissiveFactor": [
        1.0,
        1.0,
        1.0
      ],
      "emissiveTexture": {
        "index": 2
      },
      "extensions": {
        "KHR_materials_emissive_strength": {
          "emissiveStrength": 5.0
        },
        "KHR_materials_specular": {
          "specularColorFactor": [
            1.0,
            1.0,
            1.0
          ],
          "specularFactor": 0.4
        }
      },
      "name": "Arcade",
      "normalTexture": {
        "index": 3
      },
      "pbrMetallicRoughness": {
        "baseColorTexture": {
          "index": 0
        },
        "metallicRoughnessTexture": {
          "index": 1
        },
        "roughnessFactor": 0.7
      }
    },
    {
      "doubleSided": true,
      "emissiveFactor": [
        0.94014955285781,
        0.04825934533322086,
        1.0
      ],
      "extensions": {
        "KHR_materials_emissive_strength": {
          "emissiveStrength": 5.0
        },
        "KHR_materials_specular": {
          "specularColorFactor": [
            1.0,
            1.0,
            1.0
          ],
          "specularFactor": 0.0
        }
      },
      "name": "Material",
      "pbrMetallicRoughness": {
        "baseColorFactor": [
          0.0,
          0.0,
          0.0,
          1.0
        ],
        "metallicFactor": 0.0
      }
    }
  ],
  "meshes": [
    {
      "name": "Arcade_Arcade_0",
      "primitives": [
        {
          "attributes": {
            "NORMAL": 1,
            "POSITION": 0,
            "TANGENT": 2,
            "TEXCOORD_0": 3,
            "TEXCOORD_1": 4,
            "TEXCOORD_2": 5,
            "TEXCOORD_3": 6
          },
          "indices": 7,
          "material": 0,
          "mode": 4
        }
      ]
    },
    {
      "name": "LightBar_Material_0",
      "primitives": [
        {
          "attributes": {
            "NORMAL": 9,
            "POSITION": 8,
            "TEXCOORD_0": 10
          },
          "indices": 11,
          "material": 1,
          "mode": 4
        }
      ]
    }
  ],
  "nodes": [
    {
      "children": [
        1
      ],
      "matrix": [
        1.0,
        0.0,
        0.0,
        0.0,
        0.0,
        2.220446049250313e-16,
        -1.0,
        0.0,
        0.0,
        1.0,
        2.220446049250313e-16,
        0.0,
        0.0,
        0.0,
        0.0,
        1.0
      ],
      "name": "Sketchfab_model"
    },
    {
      "children": [
        2
      ],
      "matrix": [
        0.009999999776482582,
        0.0,
        0.0,
        0.0,
        0.0,
        0.0,
        0.009999999776482582,
        0.0,
        0.0,
        -0.009999999776482582,
        0.0,
        0.0,
        0.0,
        0.0,
        0.0,
        1.0
      ],
      "name": "Arcade.fbx"
    },
    {
      "children": [
        3,
        5
      ],
      "name": "RootNode"
    },
    {
      "children": [
        4
      ],
      "matrix": [
        100.0,
        0.0,
        0.0,
        0.0,
        0.0,
        -1.629206793918314e-05,
        -99.99999999999868,
        0.0,
        0.0,
        99.99999999999868,
        -1.629206793918314e-05,
        0.0,
        0.0,
        0.0,
        0.0,
        1.0
      ],
      "name": "Arcade"
    },
    {
      "mesh": 0,
      "name": "Arcade_Arcade_0"
    },
    {
      "children": [
        6
      ],
      "matrix": [
        7.549789970973109e-06,
        -99.99999999999955,
        -5.960465176979568e-06,
        0.0,
        -1.6292068416579042e-05,
        5.960463944632011e-06,
        -99.9999999999985,
        0.0,
        99.9999999999984,
        7.549790942418255e-06,
        -1.6292067961387602e-05,
        0.0,
        0.0,
        0.0,
        0.0,
        1.0
      ],
      "name": "LightBar"
    },
    {
      "mesh": 1,
      "name": "LightBar_Material_0"
    }
  ],
  "samplers": [
    {
      "magFilter": 9729,
      "minFilter": 9987,
      "wrapS": 10497,
      "wrapT": 10497
    }
  ],
  "scene": 0,
  "scenes": [
    {
      "name": "Sketchfab_Scene",
      "nodes": [
        0
      ]
    }
  ],
  "textures": [
    {
      "sampler": 0,
      "source": 0
    },
    {
      "sampler": 0,
      "source": 1
    },
    {
      "sampler": 0,
      "source": 2
    },
    {
      "sampler": 0,
      "source": 3
    }
  ]
}
