<?xml version="1.0" encoding="UTF-8" standalone="no"?>
<!-- Created with Inkscape (http://www.inkscape.org/) -->

<svg
   width="210mm"
   height="297mm"
   viewBox="0 0 210 297"
   version="1.1"
   id="svg8"
   inkscape:version="1.2.2 (732a01da63, 2022-12-09)"
   sodipodi:docname="Grim.svg"
   xmlns:inkscape="http://www.inkscape.org/namespaces/inkscape"
   xmlns:sodipodi="http://sodipodi.sourceforge.net/DTD/sodipodi-0.dtd"
   xmlns="http://www.w3.org/2000/svg"
   xmlns:svg="http://www.w3.org/2000/svg"
   xmlns:rdf="http://www.w3.org/1999/02/22-rdf-syntax-ns#"
   xmlns:cc="http://creativecommons.org/ns#"
   xmlns:dc="http://purl.org/dc/elements/1.1/">
  <defs
     id="defs2" />
  <sodipodi:namedview
     id="base"
     pagecolor="#ffffff"
     bordercolor="#666666"
     borderopacity="1.0"
     inkscape:pageopacity="0.0"
     inkscape:pageshadow="2"
     inkscape:zoom="1.4142136"
     inkscape:cx="475.17576"
     inkscape:cy="565.68542"
     inkscape:document-units="mm"
     inkscape:current-layer="layer1"
     showgrid="false"
     inkscape:snap-bbox="false"
     inkscape:snap-grids="true"
     inkscape:snap-page="true"
     inkscape:snap-others="true"
     inkscape:snap-object-midpoints="true"
     inkscape:window-width="3840"
     inkscape:window-height="1529"
     inkscape:window-x="-8"
     inkscape:window-y="1072"
     inkscape:window-maximized="1"
     inkscape:pagecheckerboard="0"
     inkscape:showpageshadow="2"
     inkscape:deskcolor="#d1d1d1" />
  <metadata
     id="metadata5">
    <rdf:RDF>
      <cc:Work
         rdf:about="">
        <dc:format>image/svg+xml</dc:format>
        <dc:type
           rdf:resource="http://purl.org/dc/dcmitype/StillImage" />
      </cc:Work>
    </rdf:RDF>
  </metadata>
  <g
     inkscape:label="Ebene 1"
     inkscape:groupmode="layer"
     id="layer1">
    <flowRoot
       xml:space="preserve"
       id="flowRoot972"
       style="font-style:normal;font-variant:normal;font-weight:normal;font-stretch:normal;font-size:40px;line-height:1.25;font-family:'Titillium Web';-inkscape-font-specification:'Titillium Web';font-variant-ligatures:normal;font-variant-caps:normal;font-variant-numeric:normal;font-feature-settings:normal;text-align:start;letter-spacing:0px;word-spacing:0px;writing-mode:lr-tb;text-anchor:start;fill:#000000;fill-opacity:1;stroke:none"
       transform="matrix(0.26458333,0,0,0.26458333,39.876488,-30.710566)"><flowRegion
         id="flowRegion974"
         style="-inkscape-font-specification:'Titillium Web';font-family:'Titillium Web';font-weight:normal;font-style:normal;font-stretch:normal;font-variant:normal"><rect
           id="rect976"
           width="335"
           height="53.57143"
           x="343.57144"
           y="609.30542"
           style="-inkscape-font-specification:'Titillium Web';font-family:'Titillium Web';font-weight:normal;font-style:normal;font-stretch:normal;font-variant:normal" /></flowRegion><flowPara
         id="flowPara978"
         style="font-style:normal;font-variant:normal;font-weight:normal;font-stretch:normal;font-size:12px;font-family:'Titillium Web';-inkscape-font-specification:'Titillium Web';font-variant-ligatures:normal;font-variant-caps:normal;font-variant-numeric:normal;font-feature-settings:normal;text-align:start;writing-mode:lr-tb;text-anchor:start" /></flowRoot>
    <path
       style="fill:#1d1d1e;fill-opacity:1;stroke:#bb2222;stroke-width:1.00699997;stroke-linecap:butt;stroke-linejoin:miter;stroke-miterlimit:4;stroke-dasharray:none;stroke-opacity:1"
       d="m 101.02359,107.13952 c -14.9128,8.28254 -24.867901,10.98785 -35.495671,14.44973 l 6.073116,41.25457 29.422555,22.82631 29.42256,-22.82631 6.07312,-41.25457 c -10.62778,-3.46188 -20.58287,-6.16718 -35.49568,-14.44973 z"
       id="path826"
       inkscape:connector-curvature="0"
       inkscape:export-filename="C:\Users\Andre\Desktop\Viper.png"
       inkscape:export-xdpi="165.65401"
       inkscape:export-ydpi="165.65401" />
    <path
       style="fill:#1d1d1e;fill-opacity:1;stroke:#aaaaaa;stroke-width:0.5;stroke-linecap:butt;stroke-linejoin:miter;stroke-miterlimit:4;stroke-dasharray:none;stroke-opacity:1"
       d="m 101.02359,115.98208 c -11.356231,6.30723 -18.937131,8.36735 -27.030275,11.0036 l 4.624733,31.41573 22.405542,17.38244 22.40555,-17.38244 4.62474,-31.41573 c -8.09315,-2.63625 -15.67405,-4.69636 -27.03029,-11.0036 z"
       id="path826-6"
       inkscape:connector-curvature="0"
       inkscape:export-filename="C:\Users\Andre\Desktop\Viper.png"
       inkscape:export-xdpi="165.65401"
       inkscape:export-ydpi="165.65401" />
    <path
       style="fill:none;stroke:#bb2222;stroke-width:0.49548295;stroke-linecap:butt;stroke-linejoin:miter;stroke-miterlimit:4;stroke-dasharray:none;stroke-opacity:1"
       d="m 72.448847,126.98303 4.838455,31.9613 23.736288,18.75483 23.7363,-18.75483 4.96037,-31.9613"
       id="path861"
       inkscape:connector-curvature="0"
       sodipodi:nodetypes="ccccc"
       inkscape:export-filename="C:\Users\Andre\Desktop\Viper.png"
       inkscape:export-xdpi="165.65401"
       inkscape:export-ydpi="165.65401" />
    <flowRoot
       xml:space="preserve"
       id="flowRoot863"
       style="font-style:normal;font-variant:normal;font-weight:normal;font-stretch:normal;font-size:40px;line-height:1.25;font-family:'Titillium Web';-inkscape-font-specification:'Titillium Web';font-variant-ligatures:normal;font-variant-caps:normal;font-variant-numeric:normal;font-feature-settings:normal;text-align:start;letter-spacing:0px;word-spacing:0px;writing-mode:lr-tb;text-anchor:start;fill:#000000;fill-opacity:1;stroke:none"><flowRegion
         id="flowRegion865"
         style="-inkscape-font-specification:'Titillium Web';font-family:'Titillium Web';font-weight:normal;font-style:normal;font-stretch:normal;font-variant:normal"><rect
           id="rect867"
           width="303.5"
           height="72"
           x="-232.5"
           y="580.51971"
           style="-inkscape-font-specification:'Titillium Web';font-family:'Titillium Web';font-weight:normal;font-style:normal;font-stretch:normal;font-variant:normal" /></flowRegion><flowPara
         id="flowPara869" /></flowRoot>
    <flowRoot
       xml:space="preserve"
       id="flowRoot871"
       style="font-style:normal;font-variant:normal;font-weight:normal;font-stretch:normal;font-size:40px;line-height:1.25;font-family:'Titillium Web';-inkscape-font-specification:'Titillium Web';font-variant-ligatures:normal;font-variant-caps:normal;font-variant-numeric:normal;font-feature-settings:normal;text-align:start;letter-spacing:8.08000006px;word-spacing:0px;writing-mode:lr-tb;text-anchor:start;fill:#dadada;fill-opacity:1;stroke:none"
       transform="matrix(0.20850249,0.16288355,-0.16288355,0.20850249,202.46912,44.740807)"
       inkscape:export-filename="C:\Users\Andre\Desktop\Viper.png"
       inkscape:export-xdpi="165.65401"
       inkscape:export-ydpi="165.65401"><flowRegion
         id="flowRegion873"
         style="font-style:normal;font-variant:normal;font-weight:normal;font-stretch:normal;font-family:'Titillium Web';-inkscape-font-specification:'Titillium Web';fill:#dadada;fill-opacity:1"><rect
           id="rect875"
           width="360"
           height="63"
           x="-230"
           y="615.01971"
           style="fill:#dadada;fill-opacity:1;-inkscape-font-specification:'Titillium Web';font-family:'Titillium Web';font-weight:normal;font-style:normal;font-stretch:normal;font-variant:normal" /></flowRegion><flowPara
         id="flowPara877"
         style="font-style:normal;font-variant:normal;font-weight:normal;font-stretch:normal;font-size:18.6667px;font-family:'Titillium Web';-inkscape-font-specification:'Titillium Web';font-variant-ligatures:normal;font-variant-caps:normal;font-variant-numeric:normal;font-feature-settings:normal;text-align:center;writing-mode:lr-tb;text-anchor:middle;fill:#dadada;fill-opacity:1">GRIM</flowPara></flowRoot>
    <path
       id="path7615"
       style="fill:#bb2222;fill-opacity:1;stroke:none;stroke-width:0.215704px;stroke-linecap:butt;stroke-linejoin:miter;stroke-opacity:1"
       d="m 101.02381,127.9747 c -7.909757,2.25234 -9.106677,6.18748 -11.668357,17.31177 -1.749924,0.57548 -2.179907,0.7125 -2.212021,2.13533 -3.124247,0.92602 -2.263304,1.5226 -3.049859,5.18567 6.735666,7.2388 11.61745,8.43806 16.928797,11.21397 5.31133,-2.77591 10.19601,-3.97517 16.93167,-11.21397 -0.78656,-3.66307 0.0734,-4.25965 -3.05082,-5.18567 -0.0321,-1.42283 -0.46162,-1.55985 -2.21154,-2.13533 -2.56168,-11.12429 -3.75813,-15.05943 -11.66787,-17.31177 z m -0.035,2.08597 c 0.98895,1.3473 0.84404,2.69473 0.0383,4.04203 2.38349,1.12397 4.2231,2.79176 5.81836,4.70396 -2.12302,-1.12856 -5.05112,-3.27691 -5.81836,-3.17879 -1.865827,0.5671 -3.607803,1.5067 -5.186147,2.93626 -1.329534,2.11586 -2.518373,4.27846 -2.783359,6.74918 1.363058,3.42358 4.155888,6.34966 7.854956,8.96072 -4.281842,-1.23979 -7.296554,-4.26518 -9.34226,-8.65588 0.613511,-3.79228 2.581197,-6.36567 3.889611,-9.53254 -1.15939,0.3353 -1.757404,1.41922 -2.516863,2.28775 0.701914,-2.00005 1.550888,-3.9709 3.317792,-5.75796 1.252925,-0.99011 2.49366,-1.98521 4.72793,-2.55473 z m -4.834336,10.36175 c 0.805692,0.81596 2.641709,2.16058 4.098116,2.88976 l -3.65763,-0.52244 c -0.423229,-0.47028 -0.503048,-1.13223 -0.440486,-2.36732 z m 9.743436,0 c 0.0625,1.23509 -0.0178,1.89704 -0.44096,2.36732 l -3.65715,0.52244 c 1.45639,-0.72918 3.29243,-2.0738 4.09811,-2.88976 z m -15.913132,6.54547 c -0.107339,1.07245 -0.05548,2.60291 0.289026,2.95927 2.126801,1.71302 4.289262,3.95381 6.380591,5.13918 2.297355,1.19696 4.862615,0.67131 7.118255,0.84742 -1.8974,0.9989 -3.13131,2.96194 -6.802869,1.38329 0.655883,1.3737 2.053007,2.90853 4.362209,4.64165 -6.043826,-2.39592 -13.317247,-7.88215 -14.52792,-9.41847 -0.29373,-0.45004 0.04905,-1.83033 0.15242,-2.74549 0.453714,0.68624 0.644062,1.59997 1.448959,1.98291 0.620186,0.26363 1.197021,0.47683 1.058798,-0.1414 -0.271082,-0.98782 -0.40213,-1.31681 -0.448637,-1.68909 -0.06878,-0.65494 0.646141,-1.97285 0.969168,-2.95927 z" />
    <path
       id="path24639"
       style="fill:#9b1c1c;fill-opacity:1;stroke:none;stroke-width:0.203512px;stroke-linecap:butt;stroke-linejoin:miter;stroke-opacity:1"
       d="m 94.80026,144.44336 c 0.240012,2.03773 0.635822,2.45472 2.679264,3.65187 -0.464154,0.12474 -0.939001,0.0515 -1.307793,-0.15577 0.343836,1.32292 2.7295,3.51486 4.739069,5.35294 2.00958,-1.83808 4.39697,-4.03002 4.74081,-5.35294 -0.36879,0.20723 -0.84364,0.28051 -1.30779,0.15577 2.04343,-1.19715 2.43968,-1.61414 2.6797,-3.65187 -1.89423,1.9704 -3.49132,0.27006 -6.11185,0.25883 -2.620518,0.0112 -4.217193,1.71157 -6.11141,-0.25883 z" />
  </g>
</svg>
