<?xml version="1.0" encoding="UTF-8" standalone="no"?>
<!-- Created with Inkscape (http://www.inkscape.org/) -->

<svg
   width="210mm"
   height="297mm"
   viewBox="0 0 210 297"
   version="1.1"
   id="svg8"
   inkscape:version="1.2.2 (732a01da63, 2022-12-09)"
   sodipodi:docname="Kraken.svg"
   xmlns:inkscape="http://www.inkscape.org/namespaces/inkscape"
   xmlns:sodipodi="http://sodipodi.sourceforge.net/DTD/sodipodi-0.dtd"
   xmlns="http://www.w3.org/2000/svg"
   xmlns:svg="http://www.w3.org/2000/svg"
   xmlns:rdf="http://www.w3.org/1999/02/22-rdf-syntax-ns#"
   xmlns:cc="http://creativecommons.org/ns#"
   xmlns:dc="http://purl.org/dc/elements/1.1/">
  <defs
     id="defs2" />
  <sodipodi:namedview
     id="base"
     pagecolor="#ffffff"
     bordercolor="#666666"
     borderopacity="1.0"
     inkscape:pageopacity="0.0"
     inkscape:pageshadow="2"
     inkscape:zoom="2.0000001"
     inkscape:cx="648.99997"
     inkscape:cy="530.99997"
     inkscape:document-units="mm"
     inkscape:current-layer="layer1"
     showgrid="false"
     inkscape:snap-bbox="false"
     inkscape:snap-grids="true"
     inkscape:snap-page="true"
     inkscape:snap-others="true"
     inkscape:snap-object-midpoints="true"
     inkscape:window-width="3840"
     inkscape:window-height="1529"
     inkscape:window-x="-8"
     inkscape:window-y="1072"
     inkscape:window-maximized="1"
     inkscape:pagecheckerboard="0"
     inkscape:showpageshadow="2"
     inkscape:deskcolor="#d1d1d1" />
  <metadata
     id="metadata5">
    <rdf:RDF>
      <cc:Work
         rdf:about="">
        <dc:format>image/svg+xml</dc:format>
        <dc:type
           rdf:resource="http://purl.org/dc/dcmitype/StillImage" />
        <dc:title />
      </cc:Work>
    </rdf:RDF>
  </metadata>
  <g
     inkscape:label="Ebene 1"
     inkscape:groupmode="layer"
     id="layer1">
    <flowRoot
       xml:space="preserve"
       id="flowRoot972"
       style="font-style:normal;font-variant:normal;font-weight:normal;font-stretch:normal;font-size:40px;line-height:1.25;font-family:Titillium;-inkscape-font-specification:'Titillium, Normal';font-variant-ligatures:normal;font-variant-caps:normal;font-variant-numeric:normal;font-feature-settings:normal;text-align:start;letter-spacing:0px;word-spacing:0px;writing-mode:lr-tb;text-anchor:start;fill:#000000;fill-opacity:1;stroke:none"
       transform="matrix(0.26458333,0,0,0.26458333,39.876488,-30.710566)"><flowRegion
         id="flowRegion974"><rect
           id="rect976"
           width="335"
           height="53.57143"
           x="343.57144"
           y="609.30542" /></flowRegion><flowPara
         id="flowPara978"
         style="font-style:normal;font-variant:normal;font-weight:normal;font-stretch:normal;font-size:12px;font-family:Titillium;-inkscape-font-specification:'Titillium, Normal';font-variant-ligatures:normal;font-variant-caps:normal;font-variant-numeric:normal;font-feature-settings:normal;text-align:start;writing-mode:lr-tb;text-anchor:start" /></flowRoot>
    <path
       style="fill:#1d1d1e;fill-opacity:1;stroke:#bb2222;stroke-width:1.00699997;stroke-linecap:butt;stroke-linejoin:miter;stroke-miterlimit:4;stroke-dasharray:none;stroke-opacity:1"
       d="m 101.02359,107.13952 c -14.9128,8.28254 -24.867901,10.98785 -35.495671,14.44973 l 6.073116,41.25457 29.422555,22.82631 29.42256,-22.82631 6.07312,-41.25457 c -10.62778,-3.46188 -20.58287,-6.16718 -35.49568,-14.44973 z"
       id="path826"
       inkscape:connector-curvature="0"
       inkscape:export-filename="C:\Users\Andre\Desktop\kraken.png"
       inkscape:export-xdpi="165.65401"
       inkscape:export-ydpi="165.65401" />
    <path
       style="fill:#1d1d1e;fill-opacity:1;stroke:#aaaaaa;stroke-width:0.5;stroke-linecap:butt;stroke-linejoin:miter;stroke-miterlimit:4;stroke-dasharray:none;stroke-opacity:1"
       d="m 101.02359,115.98208 c -11.356231,6.30723 -18.937131,8.36735 -27.030275,11.0036 l 4.624733,31.41573 22.405542,17.38244 22.40555,-17.38244 4.62474,-31.41573 c -8.09315,-2.63625 -15.67405,-4.69636 -27.03029,-11.0036 z"
       id="path826-6"
       inkscape:connector-curvature="0"
       inkscape:export-filename="C:\Users\Andre\Desktop\kraken.png"
       inkscape:export-xdpi="165.65401"
       inkscape:export-ydpi="165.65401" />
    <path
       style="fill:none;stroke:#bb2222;stroke-width:0.49548295;stroke-linecap:butt;stroke-linejoin:miter;stroke-miterlimit:4;stroke-dasharray:none;stroke-opacity:1"
       d="m 72.448847,126.98303 4.838455,31.9613 23.736288,18.75483 23.7363,-18.75483 4.96037,-31.9613"
       id="path861"
       inkscape:connector-curvature="0"
       sodipodi:nodetypes="ccccc"
       inkscape:export-filename="C:\Users\Andre\Desktop\kraken.png"
       inkscape:export-xdpi="165.65401"
       inkscape:export-ydpi="165.65401" />
    <flowRoot
       xml:space="preserve"
       id="flowRoot863"
       style="font-style:normal;font-variant:normal;font-weight:normal;font-stretch:normal;font-size:40px;line-height:1.25;font-family:Titillium;-inkscape-font-specification:'Titillium, Normal';font-variant-ligatures:normal;font-variant-caps:normal;font-variant-numeric:normal;font-feature-settings:normal;text-align:start;letter-spacing:0px;word-spacing:0px;writing-mode:lr-tb;text-anchor:start;fill:#000000;fill-opacity:1;stroke:none"><flowRegion
         id="flowRegion865"><rect
           id="rect867"
           width="303.5"
           height="72"
           x="-232.5"
           y="580.51971" /></flowRegion><flowPara
         id="flowPara869" /></flowRoot>
    <flowRoot
       xml:space="preserve"
       id="flowRoot871"
       style="font-style:normal;font-variant:normal;font-weight:normal;font-stretch:normal;font-size:40px;line-height:1.25;font-family:Titillium;-inkscape-font-specification:'Titillium, Normal';font-variant-ligatures:normal;font-variant-caps:normal;font-variant-numeric:normal;font-feature-settings:normal;text-align:start;letter-spacing:0px;word-spacing:0px;writing-mode:lr-tb;text-anchor:start;fill:#dadada;fill-opacity:1;stroke:none"
       transform="matrix(0.21555156,0.16552125,-0.16839033,0.21187894,206.70438,42.562529)"
       inkscape:export-filename="C:\Users\Andre\Desktop\kraken.png"
       inkscape:export-xdpi="165.65401"
       inkscape:export-ydpi="165.65401"><flowRegion
         id="flowRegion873"
         style="fill:#dadada;fill-opacity:1"><rect
           id="rect875"
           width="360"
           height="63"
           x="-230"
           y="615.01971"
           style="fill:#dadada;fill-opacity:1" /></flowRegion><flowPara
         id="flowPara877"
         style="font-style:normal;font-variant:normal;font-weight:normal;font-stretch:normal;font-size:18.6667px;font-family:'Titillium Web';-inkscape-font-specification:'Titillium Web';font-variant-ligatures:normal;font-variant-caps:normal;font-variant-numeric:normal;font-feature-settings:normal;text-align:center;writing-mode:lr-tb;text-anchor:middle;fill:#dadada;fill-opacity:1">K R A K E N</flowPara></flowRoot>
    <path
       style="fill:#bb2222;fill-opacity:1;stroke-width:0.07219266"
       d="m 95.85187,159.41416 c 0.04299,-1.11022 0.176011,-1.79547 0.553243,-2.85085 0.180439,-0.50477 0.184183,-0.54752 0.06881,-0.78213 -0.886466,-2.10904 -1.658922,-3.99223 -1.532935,-6.64763 0.04936,-0.33124 0.110787,-0.74527 0.136695,-0.92009 0.05894,-0.39802 -0.03863,-0.4093 -0.353992,-0.0408 -0.507983,0.59346 -1.559353,1.56 -2.187281,2.01077 -0.362118,0.25998 -1.308421,0.84228 -2.102889,1.294 -1.887575,1.07326 -2.507601,1.60174 -3.138309,2.67498 -0.729653,1.24159 -0.799938,2.91154 -0.168322,3.99885 0.694475,1.19551 2.141495,1.54718 3.692437,0.8974 0.674623,-0.28265 1.487261,-0.96711 1.763329,-1.48518 0.27547,-0.51699 0.346813,-1.44998 0.149829,-1.95951 -0.370328,-0.95793 -1.692957,-1.10005 -2.275037,-0.24447 -0.136694,0.20091 -0.293491,0.0325 -0.231991,-0.24925 0.10655,-0.48812 0.784699,-0.86204 1.645327,-0.90726 0.464865,-0.0242 0.59604,-0.006 0.8904,0.13067 1.158879,0.53489 1.432616,2.33084 0.588125,3.85865 -0.367437,0.66476 -1.318328,1.48721 -2.082975,1.8016 -2.185462,0.89859 -4.242416,0.32186 -5.275916,-1.47924 -0.445175,-0.77584 -0.568822,-1.35048 -0.52108,-2.4217 0.04548,-1.01987 0.20597,-1.57743 0.71272,-2.47588 0.671469,-1.19046 1.350391,-1.79767 3.675537,-3.28733 0.832752,-0.53351 1.762843,-1.17146 2.066875,-1.41763 0.828912,-0.67119 2.044706,-2.01124 3.341984,-3.68356 1.039354,-1.3398 1.266239,-1.6824 1.114224,-1.6824 -0.02557,0 -0.336068,0.16562 -0.690134,0.36804 -0.756771,0.43262 -1.761583,0.84841 -2.417837,1.00047 -0.257014,0.0596 -0.789958,0.12665 -1.184313,0.14909 -2.534482,0.1442 -4.87285,-1.03695 -5.720256,-2.88937 -0.218681,-0.47807 -0.248665,-0.6284 -0.280244,-1.40524 -0.04984,-1.22635 0.168535,-1.96499 0.786133,-2.65898 l 0.282036,-0.31695 -0.131597,-0.41915 c -0.172797,-0.55044 -0.167973,-1.77689 0.01001,-2.46009 0.172098,-0.66186 0.317827,-1.05802 0.947698,-2.57628 0.505429,-1.21824 0.527736,-1.29797 0.533681,-1.90711 0.005,-0.53654 -0.01808,-0.6637 -0.149568,-0.81521 -0.235841,-0.27175 -0.671196,-0.4562 -1.076742,-0.4562 -0.312518,0 -0.42809,0.0476 -0.97473,0.4015 -0.669899,0.43369 -0.870884,0.4919 -0.86646,0.25092 0.0037,-0.20995 0.145454,-0.40817 0.547125,-0.76594 0.686972,-0.61184 1.571067,-0.7865 2.323352,-0.45897 0.506225,0.22038 1.037885,0.74079 1.201511,1.17605 0.258284,0.68713 0.162888,1.26377 -0.520944,3.14929 -0.234706,0.64713 -0.481925,1.40619 -0.549394,1.68682 -0.193058,0.80303 -0.142325,2.19866 0.08711,2.39578 0.03639,0.0315 0.240614,0.0114 0.453899,-0.044 0.213283,-0.0555 0.706911,-0.11906 1.096956,-0.14135 0.593844,-0.0339 0.798567,-0.0171 1.258834,0.1029 0.991938,0.25886 1.901482,0.90684 2.045402,1.4572 0.150838,0.57676 -0.242045,1.16183 -0.780162,1.16183 -0.264526,0 -0.468329,-0.0931 -0.468329,-0.21412 0,-0.0295 0.06543,-0.0535 0.14527,-0.0535 0.254307,0 0.555697,-0.25783 0.555697,-0.4754 0,-0.71851 -0.863831,-1.22885 -2.219083,-1.31103 -0.623294,-0.0376 -1.405761,0.0854 -1.653215,0.26012 -0.122749,0.0866 0.132543,0.53058 0.6369,1.10703 1.202682,1.37459 3.433854,1.64768 5.10464,1.59453 2.349169,-0.30342 1.66827,-1.35746 1.118107,-2.68706 -0.846867,-0.45614 -1.628196,-1.17874 -1.937075,-2.24054 -0.21483,-0.7385 -0.03191,-1.95641 0.420065,-2.79741 0.216448,-0.40273 0.208709,-0.45073 -0.06705,-0.41595 -0.319647,0.0404 -0.357967,-0.078 -0.418357,-1.29042 l -0.04998,-1.00374 0.311534,-0.55522 c 0.17135,-0.3054 0.403914,-0.6346 0.516831,-0.73163 l 0.205296,-0.17638 0.261861,0.24548 c 0.259071,0.24289 0.33475,0.46851 0.183975,0.54859 -0.08561,0.0457 -0.105297,0.42943 -0.03053,0.59676 0.02593,0.0584 0.126076,0.1059 0.222381,0.1059 0.159377,0 0.17959,-0.0406 0.224775,-0.45169 0.0273,-0.24844 0.04984,-0.62033 0.05021,-0.82647 5.35e-4,-0.39134 0.122624,-0.79624 0.239964,-0.79624 0.03763,0 0.132609,-0.10751 0.21108,-0.23894 0.07863,-0.1317 0.277117,-0.30439 0.442239,-0.38475 0.319806,-0.15571 0.500705,-0.34276 0.40829,-0.42218 -0.03109,-0.0266 -0.152501,0.0283 -0.269849,0.1223 -0.117395,0.0938 -0.318515,0.19939 -0.447022,0.23433 -0.178457,0.0486 -0.303539,0.17303 -0.529372,0.52695 -0.388322,0.60855 -0.478997,0.68601 -0.678063,0.57919 -0.226046,-0.12127 -0.445811,-0.10054 -0.632065,0.0595 -0.133181,0.11442 -0.177968,0.1241 -0.232463,0.0501 -0.296206,-0.40168 0.598841,-2.48637 1.350715,-3.14594 0.448927,-0.39385 1.660772,-1.03988 2.344079,-1.24966 0.534437,-0.16408 0.628518,-0.17116 2.23247,-0.16828 1.72193,0.004 1.73681,0.004 3.62036,0.36443 0.44317,0.0848 0.92435,0.23654 1.31262,0.41427 0.64809,0.29667 1.48896,0.89683 1.57217,1.1221 0.033,0.0894 -0.0305,0.2416 -0.19025,0.45538 -0.13192,0.17664 -0.23985,0.3521 -0.23985,0.38991 0,0.0376 -0.0741,0.14975 -0.1648,0.24875 -0.15665,0.1711 -0.15794,0.1843 -0.0263,0.26704 0.0761,0.0478 0.18681,0.24909 0.24581,0.44712 0.10147,0.34048 0.3124,0.70441 0.37647,0.64935 0.0162,-0.0138 -9.3e-4,-0.41548 -0.0385,-0.89245 -0.0673,-0.85891 -0.0662,-0.86878 0.11664,-1.02998 l 0.18459,-0.1628 0.0867,0.19594 c 0.0477,0.10778 0.17327,0.29347 0.27905,0.41266 0.10583,0.11914 0.27441,0.36878 0.37466,0.55466 0.17063,0.31648 0.18303,0.42483 0.19438,1.69921 0.008,0.98121 -0.0204,1.49891 -0.10452,1.85458 -0.0642,0.27138 -0.12276,0.73431 -0.1302,1.02873 -0.0181,0.7255 -0.0738,0.83646 -0.41852,0.83646 -0.30215,0 -0.36773,0.0994 -0.11166,0.16925 0.22144,0.0603 0.34792,0.3501 0.50383,1.15422 0.18234,0.94035 0.0874,1.48195 -0.40254,2.29703 -0.19652,0.3269 -0.45539,0.66526 -0.57527,0.75195 -0.11988,0.0866 -0.58897,0.28568 -1.04236,0.44224 -1.38675,1.39298 -0.4026,2.238 1.11981,2.72503 0.61738,0.14619 0.90757,0.17568 1.75241,0.17816 0.85977,0.003 1.09475,-0.0207 1.55771,-0.1535 0.71943,-0.20638 1.30076,-0.51647 1.85596,-0.98992 0.48694,-0.41525 1.2205,-1.31821 1.2205,-1.50236 0,-0.22641 -0.95904,-0.43081 -1.75139,-0.37325 -1.32724,0.0963 -2.14287,0.56507 -2.14287,1.23133 0,0.31423 0.14307,0.47355 0.47669,0.53088 0.12338,0.0211 0.22428,0.0589 0.22428,0.0837 0,0.19081 -0.55744,0.27648 -0.86848,0.13345 -0.19508,-0.0897 -0.45215,-0.56219 -0.45215,-0.83104 0,-0.54455 0.63677,-1.15957 1.613,-1.55788 0.5068,-0.20678 0.6917,-0.24614 1.26062,-0.26824 0.43972,-0.017 0.86563,0.0121 1.25088,0.0855 0.32126,0.061 0.63633,0.11661 0.70016,0.12301 0.18986,0.0191 0.32433,-0.686 0.27853,-1.46052 -0.0444,-0.74955 -0.20406,-1.37214 -0.70394,-2.74358 -0.44659,-1.22521 -0.49652,-1.38862 -0.58639,-1.91934 -0.13219,-0.78043 0.0911,-1.40683 0.68315,-1.91609 1.03502,-0.8904 2.47036,-0.66999 3.3944,0.52124 0.17658,0.22764 0.16846,0.47027 -0.0158,0.47027 -0.14422,0 -0.72905,-0.32882 -0.82698,-0.46495 -0.0979,-0.13598 -0.65801,-0.33806 -0.93712,-0.33806 -0.3466,0 -0.85237,0.21557 -1.01928,0.43447 -0.39186,0.51383 -0.28767,1.16102 0.48394,3.00586 1.01903,2.43643 1.19906,3.46722 0.83384,4.77398 l -0.117,0.41856 0.21331,0.21714 c 0.61578,0.62675 0.93074,1.63651 0.86904,2.78607 -0.0634,1.1816 -0.41173,1.90234 -1.31355,2.71802 -2.14309,1.93837 -5.61522,2.09348 -8.36025,0.37346 -0.58836,-0.36863 -0.66369,-0.39538 -0.66369,-0.23553 0,0.12798 1.19959,1.73194 2.0485,2.73892 1.6051,1.90402 2.40911,2.61159 4.4388,3.90621 0.74674,0.47632 1.61978,1.06239 1.94009,1.3024 2.61733,1.96122 3.34193,5.38858 1.58618,7.50255 -0.42519,0.51191 -0.79017,0.76968 -1.49706,1.05734 -0.50702,0.20632 -0.57743,0.21688 -1.42897,0.21444 -0.72592,-0.003 -0.98326,-0.0303 -1.35772,-0.14976 -1.18288,-0.37696 -2.17943,-1.13448 -2.68611,-2.04182 -0.38222,-0.68445 -0.5016,-1.20426 -0.45979,-2.00184 0.0347,-0.6626 0.26586,-1.24071 0.63334,-1.58418 0.82228,-0.76856 2.93564,-0.33919 2.93564,0.59649 0,0.32635 -0.16983,0.35847 -0.31403,0.0595 -0.13049,-0.27069 -0.36102,-0.39267 -0.82492,-0.43654 -1.02164,-0.0965 -1.6212,0.71683 -1.4403,1.95416 0.0921,0.63018 0.30323,1.01819 0.80304,1.47571 1.07537,0.98448 2.46224,1.34702 3.66893,0.95913 1.06299,-0.3417 1.7632,-1.62333 1.66301,-3.04392 -0.0568,-0.80589 -0.20803,-1.27076 -0.68373,-2.10232 -0.56904,-0.99473 -1.2122,-1.53615 -3.10563,-2.61432 -1.76193,-1.00329 -2.50894,-1.53502 -3.40187,-2.42151 -0.37792,-0.37521 -0.7806,-0.77451 -0.89485,-0.88734 -0.11427,-0.11282 -0.23116,-0.18499 -0.25978,-0.1604 -0.0286,0.0244 0.008,0.50634 0.0824,1.07061 0.20839,2.5159 -0.13788,4.16906 -1.19236,6.49798 l -0.22056,0.47788 0.22769,0.67971 c 0.89914,3.15424 -1.3945,9.22428 -3.58195,11.00478 1.1266,-2.98912 3.04478,-5.75595 2.2807,-9.57727 -0.0504,-0.0143 -0.28408,0.22405 -0.51929,0.52986 -0.45498,0.59153 -0.93954,1.04237 -1.01205,0.94156 -0.0719,-0.0997 0.15833,-0.75724 0.65227,-1.86413 0.25546,-0.57243 0.46446,-1.08842 0.46446,-1.14662 0,-0.0584 -0.28179,-0.84155 -0.62622,-1.74072 -1.44556,-3.92363 -2.10438,-8.59838 -2.1232,-11.43148 h -0.37814 -0.37814 c -0.0491,4.23482 -0.953944,8.81476 -1.911653,11.28518 -0.372228,0.97049 -0.675772,1.82566 -0.674564,1.90041 9.25e-4,0.0748 0.230406,0.66286 0.509319,1.30693 0.528735,1.22097 0.673625,1.67292 0.536346,1.67292 -0.135201,0 -0.740707,-0.6258 -1.058125,-1.09356 -0.166293,-0.24502 -0.346536,-0.44554 -0.400575,-0.44554 -0.159936,0 -0.396724,0.75065 -0.327448,1.95542 0.457392,3.9727 1.175086,4.4645 2.227212,7.71948 -1.653967,-2.33697 -3.486018,-5.60321 -3.704887,-8.3034 z m 1.678076,-5.80497 c 1.172817,-2.30053 1.324666,-6.13763 1.542279,-9.05939 0.04391,-0.60728 0.09783,-0.85862 0.119765,-1.10703 0.05871,-0.66405 -0.586661,-0.58878 -1.058071,0.27462 -1.231618,2.25593 -1.534611,4.01717 -1.781737,5.88458 -0.1934,1.46131 0.07991,2.11798 0.606148,4.05468 0.354773,0.62855 0.355944,0.51525 0.571616,-0.0474 z m 7.649684,0.33457 c 0.60994,-1.45755 0.6732,-3.12088 0.40754,-4.84366 -0.14688,-0.88348 -0.56021,-2.26975 -0.98761,-3.31234 -0.53622,-1.30806 -1.57792,-2.41481 -1.72153,-2.41481 -0.12747,0 0.12577,2.52497 0.44558,5.12491 0.39488,3.20982 0.74157,3.3803 1.23258,4.74747 0.29433,0.44318 0.40832,1.36348 0.62344,0.69843 z m -12.449069,-10.3 c 0.255306,-0.0566 0.755726,-0.25225 1.112047,-0.43463 0.659907,-0.33775 1.708534,-0.98766 1.879972,-1.16511 0.171375,-0.17742 0.02194,-0.22986 -0.389471,-0.13663 -2.891538,0.65536 -5.438942,-0.18024 -7.081938,-2.32294 -0.253887,-0.33112 -0.474225,-0.63457 -0.489664,-0.67431 -0.06019,-0.155 -0.278934,0.0238 -0.405385,0.33136 -0.322151,0.78337 -0.221049,1.88333 0.246646,2.68338 0.469676,0.80344 1.588863,1.50265 2.749186,1.71752 0.686786,0.12719 1.808826,0.12783 2.378607,7.9e-4 z m 19.020839,-0.0303 c 0.82362,-0.16967 1.34331,-0.39824 1.86009,-0.81816 0.72167,-0.58639 1.11867,-1.28312 1.23342,-2.16459 0.0839,-0.64392 -0.21625,-1.76874 -0.47185,-1.76874 -0.0584,0 -0.1646,0.0978 -0.23575,0.21746 -0.30141,0.50661 -0.95619,1.23128 -1.51686,1.67881 -1.63213,1.30273 -3.64418,1.65094 -6.24362,1.08051 -0.55437,-0.12164 -0.004,0.34931 1.26563,1.08318 0.70788,0.40915 1.3017,0.67289 1.69368,0.75225 0.54251,0.10987 1.73229,0.08 2.41526,-0.0607 z m -9.76534,-3.27969 c 0.0858,-0.36893 0.0528,-0.63594 -0.12039,-0.97015 -0.13674,-0.26391 -0.16646,-0.43837 -0.15542,-0.91187 0.007,-0.32201 -0.0173,-0.5855 -0.055,-0.5855 -0.0949,0 -0.24335,0.90731 -0.24392,1.4916 -2.3e-4,0.35327 0.0467,0.57616 0.17523,0.83258 0.20043,0.39942 0.32928,0.44564 0.39966,0.14334 z m -1.58499,-0.2302 c 0.0417,-0.0945 0.0759,-0.36345 0.0759,-0.59789 0,-0.23444 0.0299,-0.49596 0.0664,-0.58114 0.29392,-0.68492 0.10583,-0.68376 -0.21239,8e-4 -0.30613,0.65909 -0.34338,1.34936 -0.0729,1.34936 0.0368,0 0.10105,-0.0772 0.14281,-0.17165 z m 4.11346,-3.74946 c 0.14305,-0.0507 0.36524,-0.16805 0.49374,-0.26094 0.24633,-0.17807 1.23224,-1.19957 1.23224,-1.27669 0,-0.10821 -0.5245,0.0602 -0.95309,0.30617 -0.25663,0.14722 -0.51086,0.26769 -0.56499,0.26769 -0.0541,0 -0.1383,0.0415 -0.18703,0.0918 -0.0486,0.0504 -0.45818,0.24838 -0.90983,0.43979 -0.46762,0.19822 -0.80822,0.382 -0.79103,0.42688 0.0705,0.1844 1.16417,0.18791 1.67999,0.006 z m -6.055402,-0.10537 c 0.110915,-0.17815 0.08043,-0.19998 -0.941744,-0.67318 -0.406951,-0.18838 -1.045235,-0.51794 -1.418418,-0.73232 -0.373172,-0.2144 -0.697379,-0.38982 -0.720433,-0.38982 -0.02305,0 -0.04199,0.0764 -0.04199,0.16951 0,0.3896 0.759177,1.31531 1.274554,1.55414 0.134311,0.0623 0.472019,0.13178 0.750462,0.15452 0.947577,0.0774 1.000164,0.0734 1.097504,-0.0829 z m 1.844032,-1.03033 c 0.13997,-0.18152 0.24465,-0.37514 0.23262,-0.43031 -0.0127,-0.0575 -0.16004,-0.12528 -0.3467,-0.15911 -0.257853,-0.0469 -0.458327,-0.17092 -0.972533,-0.60236 -0.356235,-0.29892 -0.76224,-0.67008 -0.902226,-0.82481 -0.139984,-0.15471 -0.35028,-0.32634 -0.467309,-0.38139 -0.643452,-0.30263 -0.711318,-0.32375 -0.90555,-0.28187 -0.111654,0.024 -0.202926,0.0711 -0.202926,0.10483 0,0.0336 0.30667,0.25014 0.68149,0.48122 0.374829,0.23109 0.727347,0.47409 0.783389,0.54004 0.05608,0.066 0.450336,0.41387 0.876208,0.77319 0.712563,0.60117 0.774307,0.67367 0.774307,0.90879 0,0.3326 0.120386,0.29825 0.44923,-0.12823 z m 1.49331,0.14577 c 0.12688,-0.20367 0.39558,-0.30851 0.7908,-0.30851 0.26548,0 0.35997,-0.043 0.63889,-0.29085 0.18002,-0.15994 0.53127,-0.55894 0.78052,-0.88664 0.24927,-0.32769 0.52963,-0.69295 0.62309,-0.8117 0.45319,-0.57604 0.52037,-0.70473 0.52037,-0.99717 0,-0.34078 -0.11317,-0.34125 -0.18753,-8.1e-4 -0.0295,0.13502 -0.22983,0.41201 -0.49665,0.68665 -0.24599,0.25315 -0.56725,0.62231 -0.71395,0.82031 -0.6184,0.83474 -1.04023,1.13768 -1.59126,1.1428 -0.33046,0.004 -0.82699,0.2271 -0.82699,0.37316 0,0.15393 0.17518,0.43264 0.27194,0.43264 0.0501,0 0.13598,-0.072 0.19077,-0.15989 z"
       id="path845"
       inkscape:connector-curvature="0"
       sodipodi:nodetypes="cccccccccccccccccccccccccsccccccccccccsccccccccccccssssccccccccccccccccsccsccccccccccccccccscccccccccccccscccccccccscscscscccccccccscsccccccccsccccccccccsccccccccccccccccccccsccccccsscscccccccccccccscccccccccccccccccsccscccccccsccccccccsccccccsccccccccsscccccccccccscccscccccccsccscsscccc"
       inkscape:export-filename="C:\Users\Andre\Desktop\kraken.png"
       inkscape:export-xdpi="165.65401"
       inkscape:export-ydpi="165.65401" />
  </g>
</svg>
