<?xml version="1.0" encoding="UTF-8" standalone="no"?>
<!-- Created with Inkscape (http://www.inkscape.org/) -->

<svg
   width="210mm"
   height="297mm"
   viewBox="0 0 210 297"
   version="1.1"
   id="svg8"
   inkscape:version="1.2.2 (732a01da63, 2022-12-09)"
   sodipodi:docname="Vipers.svg"
   xmlns:inkscape="http://www.inkscape.org/namespaces/inkscape"
   xmlns:sodipodi="http://sodipodi.sourceforge.net/DTD/sodipodi-0.dtd"
   xmlns="http://www.w3.org/2000/svg"
   xmlns:svg="http://www.w3.org/2000/svg"
   xmlns:rdf="http://www.w3.org/1999/02/22-rdf-syntax-ns#"
   xmlns:cc="http://creativecommons.org/ns#"
   xmlns:dc="http://purl.org/dc/elements/1.1/">
  <defs
     id="defs2" />
  <sodipodi:namedview
     id="base"
     pagecolor="#ffffff"
     bordercolor="#666666"
     borderopacity="1.0"
     inkscape:pageopacity="0.0"
     inkscape:pageshadow="2"
     inkscape:zoom="1.4142136"
     inkscape:cx="383.25187"
     inkscape:cy="610.94024"
     inkscape:document-units="mm"
     inkscape:current-layer="layer1"
     showgrid="false"
     inkscape:snap-bbox="false"
     inkscape:snap-grids="true"
     inkscape:snap-page="true"
     inkscape:snap-others="true"
     inkscape:snap-object-midpoints="true"
     inkscape:window-width="3840"
     inkscape:window-height="1529"
     inkscape:window-x="-8"
     inkscape:window-y="1072"
     inkscape:window-maximized="1"
     inkscape:pagecheckerboard="0"
     inkscape:showpageshadow="2"
     inkscape:deskcolor="#d1d1d1" />
  <metadata
     id="metadata5">
    <rdf:RDF>
      <cc:Work
         rdf:about="">
        <dc:format>image/svg+xml</dc:format>
        <dc:type
           rdf:resource="http://purl.org/dc/dcmitype/StillImage" />
        <dc:title />
      </cc:Work>
    </rdf:RDF>
  </metadata>
  <g
     inkscape:label="Ebene 1"
     inkscape:groupmode="layer"
     id="layer1">
    <flowRoot
       xml:space="preserve"
       id="flowRoot972"
       style="font-style:normal;font-variant:normal;font-weight:normal;font-stretch:normal;font-size:40px;line-height:1.25;font-family:'Titillium Web';-inkscape-font-specification:'Titillium Web';font-variant-ligatures:normal;font-variant-caps:normal;font-variant-numeric:normal;font-feature-settings:normal;text-align:start;letter-spacing:0px;word-spacing:0px;writing-mode:lr-tb;text-anchor:start;fill:#000000;fill-opacity:1;stroke:none"
       transform="matrix(0.26458333,0,0,0.26458333,39.876488,-30.710566)"><flowRegion
         id="flowRegion974"
         style="-inkscape-font-specification:'Titillium Web';font-family:'Titillium Web';font-weight:normal;font-style:normal;font-stretch:normal;font-variant:normal"><rect
           id="rect976"
           width="335"
           height="53.57143"
           x="343.57144"
           y="609.30542"
           style="-inkscape-font-specification:'Titillium Web';font-family:'Titillium Web';font-weight:normal;font-style:normal;font-stretch:normal;font-variant:normal" /></flowRegion><flowPara
         id="flowPara978"
         style="font-style:normal;font-variant:normal;font-weight:normal;font-stretch:normal;font-size:12px;font-family:'Titillium Web';-inkscape-font-specification:'Titillium Web';font-variant-ligatures:normal;font-variant-caps:normal;font-variant-numeric:normal;font-feature-settings:normal;text-align:start;writing-mode:lr-tb;text-anchor:start" /></flowRoot>
    <path
       style="fill:#1d1d1e;fill-opacity:1;stroke:#bb2222;stroke-width:1.00699997;stroke-linecap:butt;stroke-linejoin:miter;stroke-miterlimit:4;stroke-dasharray:none;stroke-opacity:1"
       d="m 101.02359,107.13952 c -14.9128,8.28254 -24.867901,10.98785 -35.495671,14.44973 l 6.073116,41.25457 29.422555,22.82631 29.42256,-22.82631 6.07312,-41.25457 c -10.62778,-3.46188 -20.58287,-6.16718 -35.49568,-14.44973 z"
       id="path826"
       inkscape:connector-curvature="0"
       inkscape:export-filename="C:\Users\Andre\Desktop\Viper.png"
       inkscape:export-xdpi="165.65401"
       inkscape:export-ydpi="165.65401" />
    <path
       style="fill:#1d1d1e;fill-opacity:1;stroke:#aaaaaa;stroke-width:0.5;stroke-linecap:butt;stroke-linejoin:miter;stroke-miterlimit:4;stroke-dasharray:none;stroke-opacity:1"
       d="m 101.02359,115.98208 c -11.356231,6.30723 -18.937131,8.36735 -27.030275,11.0036 l 4.624733,31.41573 22.405542,17.38244 22.40555,-17.38244 4.62474,-31.41573 c -8.09315,-2.63625 -15.67405,-4.69636 -27.03029,-11.0036 z"
       id="path826-6"
       inkscape:connector-curvature="0"
       inkscape:export-filename="C:\Users\Andre\Desktop\Viper.png"
       inkscape:export-xdpi="165.65401"
       inkscape:export-ydpi="165.65401" />
    <path
       style="fill:none;stroke:#bb2222;stroke-width:0.49548295;stroke-linecap:butt;stroke-linejoin:miter;stroke-miterlimit:4;stroke-dasharray:none;stroke-opacity:1"
       d="m 72.448847,126.98303 4.838455,31.9613 23.736288,18.75483 23.7363,-18.75483 4.96037,-31.9613"
       id="path861"
       inkscape:connector-curvature="0"
       sodipodi:nodetypes="ccccc"
       inkscape:export-filename="C:\Users\Andre\Desktop\Viper.png"
       inkscape:export-xdpi="165.65401"
       inkscape:export-ydpi="165.65401" />
    <flowRoot
       xml:space="preserve"
       id="flowRoot863"
       style="font-style:normal;font-variant:normal;font-weight:normal;font-stretch:normal;font-size:40px;line-height:1.25;font-family:'Titillium Web';-inkscape-font-specification:'Titillium Web';font-variant-ligatures:normal;font-variant-caps:normal;font-variant-numeric:normal;font-feature-settings:normal;text-align:start;letter-spacing:0px;word-spacing:0px;writing-mode:lr-tb;text-anchor:start;fill:#000000;fill-opacity:1;stroke:none"><flowRegion
         id="flowRegion865"
         style="-inkscape-font-specification:'Titillium Web';font-family:'Titillium Web';font-weight:normal;font-style:normal;font-stretch:normal;font-variant:normal"><rect
           id="rect867"
           width="303.5"
           height="72"
           x="-232.5"
           y="580.51971"
           style="-inkscape-font-specification:'Titillium Web';font-family:'Titillium Web';font-weight:normal;font-style:normal;font-stretch:normal;font-variant:normal" /></flowRegion><flowPara
         id="flowPara869" /></flowRoot>
    <flowRoot
       xml:space="preserve"
       id="flowRoot871"
       style="font-style:normal;font-variant:normal;font-weight:normal;font-stretch:normal;font-size:40px;line-height:1.25;font-family:'Titillium Web';-inkscape-font-specification:'Titillium Web';font-variant-ligatures:normal;font-variant-caps:normal;font-variant-numeric:normal;font-feature-settings:normal;text-align:start;letter-spacing:0.93px;word-spacing:0px;writing-mode:lr-tb;text-anchor:start;fill:#dadada;fill-opacity:1;stroke:none"
       transform="matrix(0.20850249,0.16288355,-0.16288355,0.20850249,202.46912,44.740807)"
       inkscape:export-filename="C:\Users\Andre\Desktop\Viper.png"
       inkscape:export-xdpi="165.65401"
       inkscape:export-ydpi="165.65401"><flowRegion
         id="flowRegion873"
         style="font-style:normal;font-variant:normal;font-weight:normal;font-stretch:normal;font-family:'Titillium Web';-inkscape-font-specification:'Titillium Web';fill:#dadada;fill-opacity:1"><rect
           id="rect875"
           width="360"
           height="63"
           x="-230"
           y="615.01971"
           style="fill:#dadada;fill-opacity:1;-inkscape-font-specification:'Titillium Web';font-family:'Titillium Web';font-weight:normal;font-style:normal;font-stretch:normal;font-variant:normal" /></flowRegion><flowPara
         id="flowPara877"
         style="font-style:normal;font-variant:normal;font-weight:normal;font-stretch:normal;font-size:18.6667px;font-family:'Titillium Web';-inkscape-font-specification:'Titillium Web';font-variant-ligatures:normal;font-variant-caps:normal;font-variant-numeric:normal;font-feature-settings:normal;text-align:center;writing-mode:lr-tb;text-anchor:middle;fill:#dadada;fill-opacity:1">V I P E R S</flowPara></flowRoot>
    <path
       style="fill:#bb2222;fill-opacity:1;stroke:none;stroke-width:0.10745152px;stroke-linecap:butt;stroke-linejoin:miter;stroke-opacity:1"
       d="m 89.170876,128.24203 -9.573467,10.33319 16.578384,24.97913 4.847497,-0.88648 4.1e-4,-0.17922 2.1e-4,0.17922 4.84749,0.88648 16.57839,-24.97913 -9.57347,-10.33319 -7.21794,5.62253 c -1.27625,0.52502 -2.85693,0.60777 -4.63468,0.60777 -1.77777,0 -3.358439,-0.0827 -4.634692,-0.60777 z m 0.51775,4.28568 1.678927,0.16118 5.197973,4.9562 -4.271201,-1.65206 z m 22.669964,0 -2.6057,3.46532 -4.27119,1.65206 5.19797,-4.9562 z m -25.770956,6.19945 c 2.985873,1.70971 6.237887,4.49931 7.901897,5.24267 1.859483,-1.05358 3.686617,-2.18574 6.534189,-2.27936 2.84756,0.0936 4.67471,1.22578 6.53419,2.27936 1.664,-0.74336 4.91602,-3.53296 7.90188,-5.24267 -1.67742,6.62588 -7.8781,13.75702 -9.80139,22.41414 l -0.83568,0.22791 0.36224,-3.6693 c -0.43931,1.46268 -0.85545,2.9872 -1.50202,3.89722 l -2.65712,-0.30304 v -4.1e-4 l -0.002,2.1e-4 -0.002,-2.1e-4 v 4.1e-4 l -2.657125,0.30304 c -0.646552,-0.91002 -1.062715,-2.43454 -1.502012,-3.89722 l 0.362229,3.6693 -0.835689,-0.22791 c -1.923298,-8.65712 -8.123951,-15.78826 -9.801396,-22.41414 z m 11.016937,0.0856 1.19665,1.02562 -1.272623,-0.0759 -0.351317,-0.58889 z m 6.838079,0 0.4273,0.36075 -0.35133,0.58889 -1.27262,0.0759 z m -11.092902,5.04308 c -0.120371,4.6261 1.223928,8.33671 2.69719,11.96679 -0.437664,-4.02405 -0.825239,-8.04217 -0.417839,-11.96679 l -1.165601,0.6191 z m 13.068382,0 c 0.4074,3.92462 0.0198,7.94274 -0.41785,11.96679 1.47326,-3.63008 2.81756,-7.34069 2.6972,-11.96679 l -1.11376,0.6191 z"
       id="path849"
       inkscape:connector-curvature="0"
       inkscape:export-filename="C:\Users\Andre\Desktop\Viper.png"
       inkscape:export-xdpi="165.65401"
       inkscape:export-ydpi="165.65401" />
  </g>
</svg>
